<svg xmlns="http://www.w3.org/2000/svg" viewBox="0 0 120 120">
  <!-- Favicon Yanexpro : emblème officiel (engrenage + voiture + Y).
       Même dessin que src/components/Logo.astro — garder les deux en phase. -->
  <defs>
    <mask id="y-notch">
      <rect width="120" height="120" fill="white"/>
      <path d="M76 8 h13 l4.5 8 4.5 -8 h13 l-11.5 20 v15 h-11 v-15 z"
            fill="black" stroke="black" stroke-width="16" stroke-linejoin="round"/>
    </mask>
  </defs>
  <g mask="url(#y-notch)">
    <circle cx="52" cy="68" r="39" fill="none" stroke="#d7282e" stroke-width="14"/>
    <g fill="#d7282e">
      <rect x="44" y="8" width="16" height="16" rx="3"/>
      <rect x="44" y="8" width="16" height="16" rx="3" transform="rotate(108 52 68)"/>
      <rect x="44" y="8" width="16" height="16" rx="3" transform="rotate(144 52 68)"/>
      <rect x="44" y="8" width="16" height="16" rx="3" transform="rotate(180 52 68)"/>
      <rect x="44" y="8" width="16" height="16" rx="3" transform="rotate(216 52 68)"/>
      <rect x="44" y="8" width="16" height="16" rx="3" transform="rotate(252 52 68)"/>
      <rect x="44" y="8" width="16" height="16" rx="3" transform="rotate(288 52 68)"/>
      <rect x="44" y="8" width="16" height="16" rx="3" transform="rotate(324 52 68)"/>
    </g>
  </g>
  <path fill="#d7282e" fill-rule="evenodd"
        d="M22 87 q1 -11 13 -13 l8 -10 q4 -5 10 -5 h13 q7 0 11 5 l8 10 q11 2 12 13 z
           M46 62 l-7 9 h11 v-9 z
           M54 62 v9 h14 l-7 -8 q-1 -1 -3 -1 z"/>
  <g fill="#d7282e" fill-rule="evenodd">
    <path d="M37 78 a7.5 7.5 0 1 0 0.001 0 z M37 82.5 a3 3 0 1 1 -0.001 0 z"/>
    <path d="M69 78 a7.5 7.5 0 1 0 0.001 0 z M69 82.5 a3 3 0 1 1 -0.001 0 z"/>
  </g>
  <path fill="#d7282e" d="M76 8 h13 l4.5 8 4.5 -8 h13 l-11.5 20 v15 h-11 v-15 z"/>
</svg>
